<?xml version="1.0" encoding="UTF-8"?>
<svg id="Layer_1" data-name="Layer 1" xmlns="http://www.w3.org/2000/svg" viewBox="0 0 282.09 224.09">
  <defs>
    <style>
      .cls-1 {
        fill: none;
        stroke: #fff;
        stroke-linecap: round;
        stroke-linejoin: round;
        stroke-width: 6px;
      }
    </style>
  </defs>
  <circle class="cls-1" cx="142.11" cy="11.7" r="8.7"/>
  <circle class="cls-1" cx="11.7" cy="194.98" r="8.7"/>
  <circle class="cls-1" cx="169.7" cy="212.39" r="8.7"/>
  <circle class="cls-1" cx="270.39" cy="186.28" r="8.7"/>
  <circle class="cls-1" cx="171.08" cy="147.36" r="8.7"/>
  <circle class="cls-1" cx="77.8" cy="73.22" r="8.7"/>
  <line class="cls-1" x1="73.56" y1="80.82" x2="15.17" y2="187"/>
  <line class="cls-1" x1="229.6" y1="196.34" x2="261.69" y2="186.28"/>
  <line class="cls-1" x1="178.4" y1="212.39" x2="213.02" y2="201.54"/>
  <line class="cls-1" x1="107.04" y1="207.25" x2="161" y2="212.39"/>
  <polyline class="cls-1" points="133.89 14.54 20.41 194.98 89.64 205.54"/>
  <line class="cls-1" x1="85.69" y1="76.9" x2="91.04" y2="80.19"/>
  <line class="cls-1" x1="179.78" y1="147.36" x2="214.84" y2="193.66"/>
  <circle class="cls-1" cx="98.34" cy="205.54" r="8.7"/>
  <line class="cls-1" x1="162.38" y1="147.36" x2="104.44" y2="199.33"/>
  <circle class="cls-1" cx="221.44" cy="199.33" r="8.7"/>
  <circle class="cls-1" cx="192.4" cy="49.52" r="8.7"/>
  <line class="cls-1" x1="183.7" y1="49.52" x2="173.72" y2="49.52"/>
  <polyline class="cls-1" points="198.52 55.71 264.68 179.72 149.94 15.49"/>
  <line class="cls-1" x1="142.11" y1="20.41" x2="171.08" y2="138.65"/>
</svg>